<?xml version="1.0" encoding="UTF-8" standalone="no"?>
<!-- Created with Inkscape (http://www.inkscape.org/) -->

<svg
   width="239.17166mm"
   height="45.828125mm"
   viewBox="0 0 239.17165 45.828124"
   version="1.1"
   id="svg1"
   inkscape:version="1.3 (0e150ed6c4, 2023-07-21)"
   sodipodi:docname="logo_back.svg"
   inkscape:export-filename="logo_back.svg"
   inkscape:export-xdpi="300"
   inkscape:export-ydpi="300"
   xmlns:inkscape="http://www.inkscape.org/namespaces/inkscape"
   xmlns:sodipodi="http://sodipodi.sourceforge.net/DTD/sodipodi-0.dtd"
   xmlns="http://www.w3.org/2000/svg"
   xmlns:svg="http://www.w3.org/2000/svg">
  <sodipodi:namedview
     id="namedview1"
     pagecolor="#ffffff"
     bordercolor="#000000"
     borderopacity="0.25"
     inkscape:showpageshadow="2"
     inkscape:pageopacity="0.0"
     inkscape:pagecheckerboard="0"
     inkscape:deskcolor="#d1d1d1"
     inkscape:document-units="mm"
     inkscape:zoom="0.68354948"
     inkscape:cx="793.6514"
     inkscape:cy="795.11435"
     inkscape:window-width="2400"
     inkscape:window-height="1271"
     inkscape:window-x="2391"
     inkscape:window-y="-9"
     inkscape:window-maximized="1"
     inkscape:current-layer="layer4" />
  <defs
     id="defs1">
    <rect
       x="371.58978"
       y="971.40009"
       width="580.79187"
       height="159.46175"
       id="rect39" />
    <inkscape:perspective
       sodipodi:type="inkscape:persp3d"
       inkscape:vp_x="-168.80422 : -53.724594 : 1"
       inkscape:vp_y="0 : 598.29609 : 0"
       inkscape:vp_z="246.40985 : -53.724594 : 1"
       inkscape:persp3d-origin="38.802806 : -83.340256 : 1"
       id="perspective283" />
    <inkscape:perspective
       sodipodi:type="inkscape:persp3d"
       inkscape:vp_x="-161.80399 : -51.722964 : 1"
       inkscape:vp_y="0 : 598.28486 : 0"
       inkscape:vp_z="253.40966 : -51.722964 : 1"
       inkscape:persp3d-origin="45.802836 : -81.338066 : 1"
       id="perspective261" />
    <inkscape:perspective
       sodipodi:type="inkscape:persp3d"
       inkscape:vp_x="-154.80393 : -49.722974 : 1"
       inkscape:vp_y="0 : 598.28483 : 0"
       inkscape:vp_z="260.40964 : -49.722974 : 1"
       inkscape:persp3d-origin="52.802846 : -79.338066 : 1"
       id="perspective244" />
    <inkscape:perspective
       sodipodi:type="inkscape:persp3d"
       inkscape:vp_x="-147.79502 : -47.722084 : 1"
       inkscape:vp_y="0 : 598.27892 : 0"
       inkscape:vp_z="267.40477 : -47.722084 : 1"
       inkscape:persp3d-origin="59.804876 : -77.336906 : 1"
       id="perspective233" />
    <inkscape:perspective
       sodipodi:type="inkscape:persp3d"
       inkscape:vp_x="-140.80391 : -45.722984 : 1"
       inkscape:vp_y="0 : 598.28493 : 0"
       inkscape:vp_z="274.40964 : -45.722984 : 1"
       inkscape:persp3d-origin="66.802856 : -75.338086 : 1"
       id="perspective222" />
    <inkscape:perspective
       sodipodi:type="inkscape:persp3d"
       inkscape:vp_x="-133.80844 : -43.723794 : 1"
       inkscape:vp_y="0 : 598.28832 : 0"
       inkscape:vp_z="281.4127 : -43.723794 : 1"
       inkscape:persp3d-origin="73.802126 : -73.338796 : 1"
       id="perspective211" />
    <inkscape:perspective
       sodipodi:type="inkscape:persp3d"
       inkscape:vp_x="-126.80413 : -41.723004 : 1"
       inkscape:vp_y="0 : 598.285 : 0"
       inkscape:vp_z="288.40976 : -41.723004 : 1"
       inkscape:persp3d-origin="80.802806 : -71.338096 : 1"
       id="perspective201" />
    <inkscape:perspective
       sodipodi:type="inkscape:persp3d"
       inkscape:vp_x="-128.31881 : -42.567584 : 1"
       inkscape:vp_y="0 : 601.5334 : 0"
       inkscape:vp_z="289.92831 : -42.567584 : 1"
       inkscape:persp3d-origin="80.804736 : -72.343476 : 1"
       id="perspective52" />
    <rect
       x="371.58978"
       y="971.40009"
       width="580.79187"
       height="159.46175"
       id="rect40" />
    <clipPath
       clipPathUnits="userSpaceOnUse"
       id="clipPath793">
      <path
         id="path793"
         style="fill:#ff0000;fill-opacity:1;fill-rule:nonzero;stroke:none;stroke-width:0.264583"
         d="m 100.44212,266.19966 v 132.82962 c 0.0612,-0.0152 0.12163,-0.0331 0.18293,-0.0481 2.07011,-0.53532 4.18324,-0.86838 6.29574,-1.18287 1.87624,-0.26974 3.76573,-0.4263 5.65702,-0.54002 1.45293,-0.0793 2.90831,-0.10071 4.36304,-0.11731 1.68077,-0.0134 3.36126,-0.0156 5.04207,-0.0176 1.37802,-0.002 2.75609,-0.003 4.13412,-0.003 1.1344,-2.7e-4 2.269,-5.3e-4 3.40341,-5.3e-4 0.22288,-0.0529 -0.34092,0.0777 0.3607,-0.0336 0.0626,-0.0101 -0.25143,0.0183 -0.19017,0.002 0.11544,-0.0304 0.23731,-0.0256 0.35501,-0.0455 0.0365,-0.007 -0.14579,0.0154 -0.11058,0.004 0.0821,-0.0264 0.16913,-0.0338 0.25373,-0.0506 1.14393,-0.22739 2.30082,-0.37 3.46077,-0.48318 1.27491,-0.38241 2.58153,-0.63371 3.8995,-0.80977 0.64252,-0.0652 0.76893,-0.0851 1.37925,-0.12402 0.15568,-0.01 -0.31045,0.0267 -0.46612,0.0367 -0.0166,7.9e-4 0.0322,-0.007 0.0486,-0.01 0.10747,-0.0165 0.21531,-0.0323 0.32298,-0.0475 0.15428,-0.0218 0.30866,-0.0418 0.46302,-0.063 1.19817,-0.15504 2.40568,-0.2104 3.61218,-0.2496 0.81462,-0.023 1.62941,-0.0302 2.4443,-0.0362 0.67825,-0.003 1.35676,-0.004 2.03502,-0.005 0.63532,-5.3e-4 1.2705,-5.3e-4 1.90582,-5.3e-4 0.65203,-9e-5 1.30393,2e-5 1.95596,0 0.69521,-10e-6 1.39044,1e-5 2.08566,0 h 3.42769 4.55838 3.69073 3.38894 3.44165 4.25917 5.10305 4.05195 3.24476 3.59462 c 1.88745,-0.0515 3.76816,0.071 5.64668,0.24133 1.23357,0.11531 2.47036,0.18544 3.7083,0.22944 1.46163,0.0452 2.92409,0.0525 4.3863,0.0615 1.91855,0.009 3.83715,0.0104 5.75572,0.0124 1.69195,0.001 3.3837,0.002 5.07566,0.002 1.19332,-0.0693 2.38782,-0.1222 3.58221,-0.1695 1.15466,-0.047 2.30997,-0.0691 3.46542,-0.0842 1.21996,-0.0135 2.43971,-0.0145 3.65972,-0.0165 1.45075,-0.002 2.90196,-0.003 4.35271,-0.003 1.44225,-2.7e-4 2.8841,5e-5 4.32635,0 1.91939,-5e-5 3.83892,-5.3e-4 5.75831,-5.3e-4 h 4.42918 c 0.74027,-10e-6 1.48025,0 2.22054,0 0.59439,0 0.39174,0.0497 0.62632,-0.0124 1.00827,-0.0509 2.00971,-0.1776 3.01583,-0.2651 1.36134,-0.11094 2.72581,-0.17121 4.09071,-0.21601 1.00287,-0.0313 2.00636,-0.0395 3.00964,-0.0455 0.93611,-0.005 1.87248,-0.006 2.80861,-0.007 0.13919,-1.1e-4 0.27836,1e-4 0.41755,0 0.28055,-2e-4 0.51722,-5.3e-4 0.79788,-5.3e-4 0.13026,-5e-5 0.5209,-0.002 0.39067,0 -0.46996,0.01 -0.54443,0.0266 -0.37258,-0.007 0.85249,-0.0761 0.39885,-0.0583 1.85363,-0.23772 0.63141,-0.0762 1.26691,-0.10346 1.90118,-0.14624 V 266.19966 Z m 33.74678,130.2551 c -0.0914,0.007 -0.18283,0.0172 -0.27441,0.0217 -0.0293,0.005 -0.0586,0.01 -0.0879,0.0145 -0.008,0.002 -0.0158,0.004 -0.0238,0.006 0.12889,-0.0122 0.25705,-0.0305 0.38602,-0.0419 z" />
    </clipPath>
  </defs>
  <g
     inkscape:groupmode="layer"
     id="layer4"
     inkscape:label="main"
     transform="translate(-76.324291,-238.56449)"
     style="display:inline">
    <g
       inkscape:label="Vrstva 1"
       inkscape:groupmode="layer"
       id="layer1"
       transform="translate(9.1918107,-157.83953)"
       style="display:none"
       clip-path="url(#clipPath793)">
      <g
         sodipodi:type="inkscape:box3d"
         id="g283"
         style="fill:#000000;fill-opacity:1;stroke:#ffffff;stroke-opacity:1"
         inkscape:perspectiveID="#perspective283"
         inkscape:corner0="-0.15956613 : 0.16910282 : 0 : 1"
         inkscape:corner7="-0.17625814 : -0.022277757 : 0.25 : 1">
        <path
           sodipodi:type="inkscape:box3dside"
           id="path278"
           style="fill:#000000;fill-opacity:1;fill-rule:evenodd;stroke:#ffffff;stroke-linejoin:round;stroke-opacity:1"
           inkscape:box3dsidetype="11"
           d="m 183.91234,430.33341 4.43958,-1.02015 v 106.63853 l -4.43958,-0.61223 z"
           points="188.35192,429.31326 188.35192,535.95179 183.91234,535.33956 183.91234,430.33341 " />
        <path
           sodipodi:type="inkscape:box3dside"
           id="path279"
           style="fill:#000000;fill-opacity:1;fill-rule:evenodd;stroke:#ffffff;stroke-linejoin:round;stroke-opacity:1"
           inkscape:box3dsidetype="6"
           d="m 145.35189,410.81274 v 136.24184 l 38.56045,-11.71502 V 430.33341 Z"
           points="145.35189,547.05458 183.91234,535.33956 183.91234,430.33341 145.35189,410.81274 " />
        <path
           sodipodi:type="inkscape:box3dside"
           id="path280"
           style="fill:#000000;fill-opacity:1;fill-rule:evenodd;stroke:#ffffff;stroke-linejoin:round;stroke-opacity:1"
           inkscape:box3dsidetype="13"
           d="m 145.35189,547.05458 5.0056,1.03543 37.99443,-12.13822 -4.43958,-0.61223 z"
           points="150.35749,548.09001 188.35192,535.95179 183.91234,535.33956 145.35189,547.05458 " />
        <path
           sodipodi:type="inkscape:box3dside"
           id="path281"
           style="fill:#000000;fill-opacity:1;fill-rule:evenodd;stroke:#ffffff;stroke-linejoin:round;stroke-opacity:1"
           inkscape:box3dsidetype="5"
           d="m 145.35189,410.81274 5.0056,-1.72532 37.99443,20.22584 -4.43958,1.02015 z"
           points="150.35749,409.08742 188.35192,429.31326 183.91234,430.33341 145.35189,410.81274 " />
        <path
           sodipodi:type="inkscape:box3dside"
           id="path282"
           style="fill:#000000;fill-opacity:1;fill-rule:evenodd;stroke:#ffffff;stroke-linejoin:round;stroke-opacity:1"
           inkscape:box3dsidetype="14"
           d="m 150.35749,409.08742 v 139.00259 l 37.99443,-12.13822 V 429.31326 Z"
           points="150.35749,548.09001 188.35192,535.95179 188.35192,429.31326 150.35749,409.08742 " />
        <path
           sodipodi:type="inkscape:box3dside"
           id="path283"
           style="fill:#000000;fill-opacity:1;fill-rule:evenodd;stroke:#ffffff;stroke-linejoin:round;stroke-opacity:1"
           inkscape:box3dsidetype="3"
           d="m 145.35189,410.81274 5.0056,-1.72532 v 139.00259 l -5.0056,-1.03543 z"
           points="150.35749,409.08742 150.35749,548.09001 145.35189,547.05458 145.35189,410.81274 " />
      </g>
      <g
         sodipodi:type="inkscape:box3d"
         id="g255"
         style="fill:#ffffff;fill-opacity:1;stroke:#000000;stroke-opacity:1"
         inkscape:perspectiveID="#perspective261"
         inkscape:corner0="-0.15956613 : 0.16910282 : 0 : 1"
         inkscape:corner7="-0.17625814 : -0.022277757 : 0.25 : 1">
        <path
           sodipodi:type="inkscape:box3dside"
           id="path250"
           style="fill:#ffffff;fill-opacity:1;fill-rule:evenodd;stroke:#000000;stroke-linejoin:round;stroke-opacity:1"
           inkscape:box3dsidetype="11"
           d="m 190.91229,428.33301 4.43958,-1.02014 V 533.9494 l -4.43958,-0.61222 z"
           points="195.35187,427.31287 195.35187,533.9494 190.91229,533.33718 190.91229,428.33301 " />
        <path
           sodipodi:type="inkscape:box3dside"
           id="path251"
           style="fill:#ffffff;fill-opacity:1;fill-rule:evenodd;stroke:#000000;stroke-linejoin:round;stroke-opacity:1"
           inkscape:box3dsidetype="6"
           d="m 152.35189,408.81271 v 136.23928 l 38.5604,-11.71481 V 428.33301 Z"
           points="152.35189,545.05199 190.91229,533.33718 190.91229,428.33301 152.35189,408.81271 " />
        <path
           sodipodi:type="inkscape:box3dside"
           id="path252"
           style="fill:#ffffff;fill-opacity:1;fill-rule:evenodd;stroke:#000000;stroke-linejoin:round;stroke-opacity:1"
           inkscape:box3dsidetype="13"
           d="m 152.35189,545.05199 5.00559,1.03541 37.99439,-12.138 -4.43958,-0.61222 z"
           points="157.35748,546.0874 195.35187,533.9494 190.91229,533.33718 152.35189,545.05199 " />
        <path
           sodipodi:type="inkscape:box3dside"
           id="path253"
           style="fill:#ffffff;fill-opacity:1;fill-rule:evenodd;stroke:#000000;stroke-linejoin:round;stroke-opacity:1"
           inkscape:box3dsidetype="5"
           d="m 152.35189,408.81271 5.00559,-1.7253 37.99439,20.22546 -4.43958,1.02014 z"
           points="157.35748,407.08741 195.35187,427.31287 190.91229,428.33301 152.35189,408.81271 " />
        <path
           sodipodi:type="inkscape:box3dside"
           id="path254"
           style="fill:#ffffff;fill-opacity:1;fill-rule:evenodd;stroke:#000000;stroke-linejoin:round;stroke-opacity:1"
           inkscape:box3dsidetype="14"
           d="M 157.35748,407.08741 V 546.0874 l 37.99439,-12.138 V 427.31287 Z"
           points="157.35748,546.0874 195.35187,533.9494 195.35187,427.31287 157.35748,407.08741 " />
        <path
           sodipodi:type="inkscape:box3dside"
           id="path255"
           style="fill:#ffffff;fill-opacity:1;fill-rule:evenodd;stroke:#000000;stroke-linejoin:round;stroke-opacity:1"
           inkscape:box3dsidetype="3"
           d="m 152.35189,408.81271 5.00559,-1.7253 V 546.0874 l -5.00559,-1.03541 z"
           points="157.35748,407.08741 157.35748,546.0874 152.35189,545.05199 152.35189,408.81271 " />
      </g>
      <g
         sodipodi:type="inkscape:box3d"
         id="g244"
         style="fill:#000000;fill-opacity:1;stroke:#ffffff;stroke-opacity:1"
         inkscape:perspectiveID="#perspective244"
         inkscape:corner0="-0.15956613 : 0.16910282 : 0 : 1"
         inkscape:corner7="-0.17625814 : -0.022277757 : 0.25 : 1">
        <path
           sodipodi:type="inkscape:box3dside"
           id="path239"
           style="fill:#000000;fill-opacity:1;fill-rule:evenodd;stroke:#ffffff;stroke-linejoin:round;stroke-opacity:1"
           inkscape:box3dsidetype="11"
           d="m 197.91228,426.33302 4.43959,-1.02014 V 531.9494 l -4.43959,-0.61222 z"
           points="202.35187,425.31288 202.35187,531.9494 197.91228,531.33718 197.91228,426.33302 " />
        <path
           sodipodi:type="inkscape:box3dside"
           id="path240"
           style="fill:#000000;fill-opacity:1;fill-rule:evenodd;stroke:#ffffff;stroke-linejoin:round;stroke-opacity:1"
           inkscape:box3dsidetype="6"
           d="m 159.35189,406.81271 v 136.23928 l 38.56039,-11.71481 V 426.33302 Z"
           points="159.35189,543.05199 197.91228,531.33718 197.91228,426.33302 159.35189,406.81271 " />
        <path
           sodipodi:type="inkscape:box3dside"
           id="path241"
           style="fill:#000000;fill-opacity:1;fill-rule:evenodd;stroke:#ffffff;stroke-linejoin:round;stroke-opacity:1"
           inkscape:box3dsidetype="13"
           d="m 159.35189,543.05199 5.00559,1.0354 37.99439,-12.13799 -4.43959,-0.61222 z"
           points="164.35748,544.08739 202.35187,531.9494 197.91228,531.33718 159.35189,543.05199 " />
        <path
           sodipodi:type="inkscape:box3dside"
           id="path242"
           style="fill:#000000;fill-opacity:1;fill-rule:evenodd;stroke:#ffffff;stroke-linejoin:round;stroke-opacity:1"
           inkscape:box3dsidetype="5"
           d="m 159.35189,406.81271 5.00559,-1.72529 37.99439,20.22546 -4.43959,1.02014 z"
           points="164.35748,405.08742 202.35187,425.31288 197.91228,426.33302 159.35189,406.81271 " />
        <path
           sodipodi:type="inkscape:box3dside"
           id="path243"
           style="fill:#000000;fill-opacity:1;fill-rule:evenodd;stroke:#ffffff;stroke-linejoin:round;stroke-opacity:1"
           inkscape:box3dsidetype="14"
           d="M 164.35748,405.08742 V 544.08739 L 202.35187,531.9494 V 425.31288 Z"
           points="164.35748,544.08739 202.35187,531.9494 202.35187,425.31288 164.35748,405.08742 " />
        <path
           sodipodi:type="inkscape:box3dside"
           id="path244"
           style="fill:#000000;fill-opacity:1;fill-rule:evenodd;stroke:#ffffff;stroke-linejoin:round;stroke-opacity:1"
           inkscape:box3dsidetype="3"
           d="m 159.35189,406.81271 5.00559,-1.72529 v 138.99997 l -5.00559,-1.0354 z"
           points="164.35748,405.08742 164.35748,544.08739 159.35189,543.05199 159.35189,406.81271 " />
      </g>
      <g
         sodipodi:type="inkscape:box3d"
         id="g233"
         style="fill:#ffffff;fill-opacity:1;stroke:#000000;stroke-opacity:1"
         inkscape:perspectiveID="#perspective233"
         inkscape:corner0="-0.15956613 : 0.16910282 : 0 : 1"
         inkscape:corner7="-0.17625814 : -0.022277757 : 0.25 : 1">
        <path
           sodipodi:type="inkscape:box3dside"
           id="path228"
           style="fill:#ffffff;fill-opacity:1;fill-rule:evenodd;stroke:#000000;stroke-linejoin:round;stroke-opacity:1"
           inkscape:box3dsidetype="11"
           d="m 204.91172,424.3328 4.43944,-1.02013 v 106.63547 l -4.43944,-0.61221 z"
           points="209.35116,423.31267 209.35116,529.94814 204.91172,529.33593 204.91172,424.3328 " />
        <path
           sodipodi:type="inkscape:box3dside"
           id="path229"
           style="fill:#ffffff;fill-opacity:1;fill-rule:evenodd;stroke:#000000;stroke-linejoin:round;stroke-opacity:1"
           inkscape:box3dsidetype="6"
           d="m 166.35261,404.81269 v 136.23793 l 38.55911,-11.71469 V 424.3328 Z"
           points="166.35261,541.05062 204.91172,529.33593 204.91172,424.3328 166.35261,404.81269 " />
        <path
           sodipodi:type="inkscape:box3dside"
           id="path230"
           style="fill:#ffffff;fill-opacity:1;fill-rule:evenodd;stroke:#000000;stroke-linejoin:round;stroke-opacity:1"
           inkscape:box3dsidetype="13"
           d="m 166.35261,541.05062 5.00543,1.0354 37.99312,-12.13788 -4.43944,-0.61221 z"
           points="171.35804,542.08602 209.35116,529.94814 204.91172,529.33593 166.35261,541.05062 " />
        <path
           sodipodi:type="inkscape:box3dside"
           id="path231"
           style="fill:#ffffff;fill-opacity:1;fill-rule:evenodd;stroke:#000000;stroke-linejoin:round;stroke-opacity:1"
           inkscape:box3dsidetype="5"
           d="m 166.35261,404.81269 5.00543,-1.72528 37.99312,20.22526 -4.43944,1.02013 z"
           points="171.35804,403.08741 209.35116,423.31267 204.91172,424.3328 166.35261,404.81269 " />
        <path
           sodipodi:type="inkscape:box3dside"
           id="path232"
           style="fill:#ffffff;fill-opacity:1;fill-rule:evenodd;stroke:#000000;stroke-linejoin:round;stroke-opacity:1"
           inkscape:box3dsidetype="14"
           d="m 171.35804,403.08741 v 138.99861 l 37.99312,-12.13788 V 423.31267 Z"
           points="171.35804,542.08602 209.35116,529.94814 209.35116,423.31267 171.35804,403.08741 " />
        <path
           sodipodi:type="inkscape:box3dside"
           id="path233"
           style="fill:#ffffff;fill-opacity:1;fill-rule:evenodd;stroke:#000000;stroke-linejoin:round;stroke-opacity:1"
           inkscape:box3dsidetype="3"
           d="m 166.35261,404.81269 5.00543,-1.72528 v 138.99861 l -5.00543,-1.0354 z"
           points="171.35804,403.08741 171.35804,542.08602 166.35261,541.05062 166.35261,404.81269 " />
      </g>
      <g
         sodipodi:type="inkscape:box3d"
         id="g222"
         style="fill:#000000;fill-opacity:1;stroke:#ffffff;stroke-opacity:1"
         inkscape:perspectiveID="#perspective222"
         inkscape:corner0="-0.15956613 : 0.16910282 : 0 : 1"
         inkscape:corner7="-0.17625814 : -0.022277757 : 0.25 : 1">
        <path
           sodipodi:type="inkscape:box3dside"
           id="path217"
           style="fill:#000000;fill-opacity:1;fill-rule:evenodd;stroke:#ffffff;stroke-linejoin:round;stroke-opacity:1"
           inkscape:box3dsidetype="11"
           d="m 211.91229,422.33302 4.43958,-1.02014 v 106.63654 l -4.43958,-0.61221 z"
           points="216.35187,421.31288 216.35187,527.94942 211.91229,527.33721 211.91229,422.33302 " />
        <path
           sodipodi:type="inkscape:box3dside"
           id="path218"
           style="fill:#000000;fill-opacity:1;fill-rule:evenodd;stroke:#ffffff;stroke-linejoin:round;stroke-opacity:1"
           inkscape:box3dsidetype="6"
           d="m 173.3519,402.81271 v 136.2393 l 38.56039,-11.7148 V 422.33302 Z"
           points="173.3519,539.05201 211.91229,527.33721 211.91229,422.33302 173.3519,402.81271 " />
        <path
           sodipodi:type="inkscape:box3dside"
           id="path219"
           style="fill:#000000;fill-opacity:1;fill-rule:evenodd;stroke:#ffffff;stroke-linejoin:round;stroke-opacity:1"
           inkscape:box3dsidetype="13"
           d="m 173.3519,539.05201 5.00559,1.03541 37.99438,-12.138 -4.43958,-0.61221 z"
           points="178.35749,540.08742 216.35187,527.94942 211.91229,527.33721 173.3519,539.05201 " />
        <path
           sodipodi:type="inkscape:box3dside"
           id="path220"
           style="fill:#000000;fill-opacity:1;fill-rule:evenodd;stroke:#ffffff;stroke-linejoin:round;stroke-opacity:1"
           inkscape:box3dsidetype="5"
           d="m 173.3519,402.81271 5.00559,-1.72529 37.99438,20.22546 -4.43958,1.02014 z"
           points="178.35749,401.08742 216.35187,421.31288 211.91229,422.33302 173.3519,402.81271 " />
        <path
           sodipodi:type="inkscape:box3dside"
           id="path221"
           style="fill:#000000;fill-opacity:1;fill-rule:evenodd;stroke:#ffffff;stroke-linejoin:round;stroke-opacity:1"
           inkscape:box3dsidetype="14"
           d="m 178.35749,401.08742 v 139 l 37.99438,-12.138 V 421.31288 Z"
           points="178.35749,540.08742 216.35187,527.94942 216.35187,421.31288 178.35749,401.08742 " />
        <path
           sodipodi:type="inkscape:box3dside"
           id="path222"
           style="fill:#000000;fill-opacity:1;fill-rule:evenodd;stroke:#ffffff;stroke-linejoin:round;stroke-opacity:1"
           inkscape:box3dsidetype="3"
           d="m 173.3519,402.81271 5.00559,-1.72529 v 139 l -5.00559,-1.03541 z"
           points="178.35749,401.08742 178.35749,540.08742 173.3519,539.05201 173.3519,402.81271 " />
      </g>
      <g
         sodipodi:type="inkscape:box3d"
         id="g211"
         style="fill:#ffffff;fill-opacity:1;stroke:#000000;stroke-opacity:1"
         inkscape:perspectiveID="#perspective211"
         inkscape:corner0="-0.15956613 : 0.16910282 : 0 : 1"
         inkscape:corner7="-0.17625814 : -0.022277757 : 0.25 : 1">
        <path
           sodipodi:type="inkscape:box3dside"
           id="path206"
           style="fill:#ffffff;fill-opacity:1;fill-rule:evenodd;stroke:#000000;stroke-linejoin:round;stroke-opacity:1"
           inkscape:box3dsidetype="11"
           d="m 218.91298,420.33321 4.43967,-1.02014 v 106.63714 l -4.43967,-0.61222 z"
           points="223.35265,419.31307 223.35265,525.95021 218.91298,525.33799 218.91298,420.33321 " />
        <path
           sodipodi:type="inkscape:box3dside"
           id="path207"
           style="fill:#ffffff;fill-opacity:1;fill-rule:evenodd;stroke:#000000;stroke-linejoin:round;stroke-opacity:1"
           inkscape:box3dsidetype="6"
           d="m 180.35189,400.81272 v 136.24007 l 38.56109,-11.7148 V 420.33321 Z"
           points="180.35189,537.05279 218.91298,525.33799 218.91298,420.33321 180.35189,400.81272 " />
        <path
           sodipodi:type="inkscape:box3dside"
           id="path208"
           style="fill:#ffffff;fill-opacity:1;fill-rule:evenodd;stroke:#000000;stroke-linejoin:round;stroke-opacity:1"
           inkscape:box3dsidetype="13"
           d="m 180.35189,537.05279 5.00568,1.03541 37.99508,-12.13799 -4.43967,-0.61222 z"
           points="185.35757,538.0882 223.35265,525.95021 218.91298,525.33799 180.35189,537.05279 " />
        <path
           sodipodi:type="inkscape:box3dside"
           id="path209"
           style="fill:#ffffff;fill-opacity:1;fill-rule:evenodd;stroke:#000000;stroke-linejoin:round;stroke-opacity:1"
           inkscape:box3dsidetype="5"
           d="m 180.35189,400.81272 5.00568,-1.72531 37.99508,20.22566 -4.43967,1.02014 z"
           points="185.35757,399.08741 223.35265,419.31307 218.91298,420.33321 180.35189,400.81272 " />
        <path
           sodipodi:type="inkscape:box3dside"
           id="path210"
           style="fill:#ffffff;fill-opacity:1;fill-rule:evenodd;stroke:#000000;stroke-linejoin:round;stroke-opacity:1"
           inkscape:box3dsidetype="14"
           d="M 185.35757,399.08741 V 538.0882 l 37.99508,-12.13799 V 419.31307 Z"
           points="185.35757,538.0882 223.35265,525.95021 223.35265,419.31307 185.35757,399.08741 " />
        <path
           sodipodi:type="inkscape:box3dside"
           id="path211"
           style="fill:#ffffff;fill-opacity:1;fill-rule:evenodd;stroke:#000000;stroke-linejoin:round;stroke-opacity:1"
           inkscape:box3dsidetype="3"
           d="m 180.35189,400.81272 5.00568,-1.72531 V 538.0882 l -5.00568,-1.03541 z"
           points="185.35757,399.08741 185.35757,538.0882 180.35189,537.05279 180.35189,400.81272 " />
      </g>
      <g
         sodipodi:type="inkscape:box3d"
         id="g105"
         style="fill:#000000;fill-opacity:1;stroke:#ffffff;stroke-opacity:1"
         inkscape:perspectiveID="#perspective201"
         inkscape:corner0="-0.15956613 : 0.16910282 : 0 : 1"
         inkscape:corner7="-0.17625814 : -0.022277757 : 0.25 : 1">
        <path
           sodipodi:type="inkscape:box3dside"
           id="path100"
           style="fill:#000000;fill-opacity:1;fill-rule:evenodd;stroke:#ffffff;stroke-linejoin:round;stroke-opacity:1"
           inkscape:box3dsidetype="11"
           d="m 225.9123,418.33302 4.43959,-1.02014 v 106.63656 l -4.43959,-0.61222 z"
           points="230.35189,417.31288 230.35189,523.94944 225.9123,523.33722 225.9123,418.33302 " />
        <path
           sodipodi:type="inkscape:box3dside"
           id="path101"
           style="fill:#000000;fill-opacity:1;fill-rule:evenodd;stroke:#ffffff;stroke-linejoin:round;stroke-opacity:1"
           inkscape:box3dsidetype="6"
           d="m 187.35188,398.81271 v 136.23931 l 38.56042,-11.7148 v -105.0042 z"
           points="187.35188,535.05202 225.9123,523.33722 225.9123,418.33302 187.35188,398.81271 " />
        <path
           sodipodi:type="inkscape:box3dside"
           id="path102"
           style="fill:#000000;fill-opacity:1;fill-rule:evenodd;stroke:#ffffff;stroke-linejoin:round;stroke-opacity:1"
           inkscape:box3dsidetype="13"
           d="m 187.35188,535.05202 5.00559,1.03541 37.99442,-12.13799 -4.43959,-0.61222 z"
           points="192.35747,536.08743 230.35189,523.94944 225.9123,523.33722 187.35188,535.05202 " />
        <path
           sodipodi:type="inkscape:box3dside"
           id="path103"
           style="fill:#000000;fill-opacity:1;fill-rule:evenodd;stroke:#ffffff;stroke-linejoin:round;stroke-opacity:1"
           inkscape:box3dsidetype="5"
           d="m 187.35188,398.81271 5.00559,-1.7253 37.99442,20.22547 -4.43959,1.02014 z"
           points="192.35747,397.08741 230.35189,417.31288 225.9123,418.33302 187.35188,398.81271 " />
        <path
           sodipodi:type="inkscape:box3dside"
           id="path104"
           style="fill:#000000;fill-opacity:1;fill-rule:evenodd;stroke:#ffffff;stroke-linejoin:round;stroke-opacity:1"
           inkscape:box3dsidetype="14"
           d="m 192.35747,397.08741 v 139.00002 l 37.99442,-12.13799 V 417.31288 Z"
           points="192.35747,536.08743 230.35189,523.94944 230.35189,417.31288 192.35747,397.08741 " />
        <path
           sodipodi:type="inkscape:box3dside"
           id="path105"
           style="fill:#000000;fill-opacity:1;fill-rule:evenodd;stroke:#ffffff;stroke-linejoin:round;stroke-opacity:1"
           inkscape:box3dsidetype="3"
           d="m 187.35188,398.81271 5.00559,-1.7253 v 139.00002 l -5.00559,-1.03541 z"
           points="192.35747,397.08741 192.35747,536.08743 187.35188,535.05202 187.35188,398.81271 " />
      </g>
      <g
         sodipodi:type="inkscape:box3d"
         id="g106"
         style="fill:#ffffff;fill-opacity:1;stroke:#000000;stroke-opacity:1"
         inkscape:perspectiveID="#perspective52"
         inkscape:corner0="-0.19650668 : 0.067312121 : 0 : 1"
         inkscape:corner7="-0.23763084 : -0.018417047 : 0.25 : 1">
        <path
           sodipodi:type="inkscape:box3dside"
           id="path111"
           style="fill:#ffffff;fill-opacity:1;fill-rule:evenodd;stroke:#000000;stroke-linejoin:round;stroke-opacity:1"
           inkscape:box3dsidetype="11"
           d="m 236.57098,474.62919 12.0954,-0.41315 v 50.93889 l -12.0954,-1.5753 z"
           points="248.66638,474.21604 248.66638,525.15493 236.57098,523.57963 236.57098,474.62919 " />
        <path
           sodipodi:type="inkscape:box3dside"
           id="path106"
           style="fill:#ffffff;fill-opacity:1;fill-rule:evenodd;stroke:#000000;stroke-linejoin:round;stroke-opacity:1"
           inkscape:box3dsidetype="6"
           d="m 199.08161,471.46471 v 64.18095 l 37.48937,-12.06603 v -48.95044 z"
           points="199.08161,535.64566 236.57098,523.57963 236.57098,474.62919 199.08161,471.46471 " />
        <path
           sodipodi:type="inkscape:box3dside"
           id="path110"
           style="fill:#ffffff;fill-opacity:1;fill-rule:evenodd;stroke:#000000;stroke-linejoin:round;stroke-opacity:1"
           inkscape:box3dsidetype="13"
           d="m 199.08161,535.64566 14.03952,2.74276 35.54525,-13.23349 -12.0954,-1.5753 z"
           points="213.12113,538.38842 248.66638,525.15493 236.57098,523.57963 199.08161,535.64566 " />
        <path
           sodipodi:type="inkscape:box3dside"
           id="path107"
           style="fill:#ffffff;fill-opacity:1;fill-rule:evenodd;stroke:#000000;stroke-linejoin:round;stroke-opacity:1"
           inkscape:box3dsidetype="5"
           d="m 199.08161,471.46471 14.03952,-0.71932 35.54525,3.47065 -12.0954,0.41315 z"
           points="213.12113,470.74539 248.66638,474.21604 236.57098,474.62919 199.08161,471.46471 " />
        <path
           sodipodi:type="inkscape:box3dside"
           id="path109"
           style="fill:#ffffff;fill-opacity:1;fill-rule:evenodd;stroke:#000000;stroke-linejoin:round;stroke-opacity:1"
           inkscape:box3dsidetype="14"
           d="m 213.12113,470.74539 v 67.64303 l 35.54525,-13.23349 v -50.93889 z"
           points="213.12113,538.38842 248.66638,525.15493 248.66638,474.21604 213.12113,470.74539 " />
        <path
           sodipodi:type="inkscape:box3dside"
           id="path108"
           style="fill:#ffffff;fill-opacity:1;fill-rule:evenodd;stroke:#000000;stroke-linejoin:round;stroke-opacity:1"
           inkscape:box3dsidetype="3"
           d="m 199.08161,471.46471 14.03952,-0.71932 v 67.64303 l -14.03952,-2.74276 z"
           points="213.12113,470.74539 213.12113,538.38842 199.08161,535.64566 199.08161,471.46471 " />
      </g>
      <g
         sodipodi:type="inkscape:box3d"
         id="g122"
         style="fill:#000000;fill-opacity:1;fill-rule:nonzero;stroke:#ffffff;stroke-opacity:1"
         inkscape:perspectiveID="#perspective52"
         inkscape:corner0="-0.25078372 : 0.10735441 : 0 : 1"
         inkscape:corner7="-0.2939319 : -0.015016375 : 0.25 : 1">
        <path
           sodipodi:type="inkscape:box3dside"
           id="path127"
           style="fill:#000000;fill-opacity:1;fill-rule:nonzero;stroke:#ffffff;stroke-linejoin:round;stroke-opacity:1"
           inkscape:box3dsidetype="11"
           d="m 252.74504,449.97106 14.16799,-1.57185 v 76.99255 l -14.16799,-1.75285 z"
           points="266.91303,448.39921 266.91303,525.39176 252.74504,523.63891 252.74504,449.97106 " />
        <path
           sodipodi:type="inkscape:box3dside"
           id="path122"
           style="fill:#000000;fill-opacity:1;fill-rule:nonzero;stroke:#ffffff;stroke-linejoin:round;stroke-opacity:1"
           inkscape:box3dsidetype="6"
           d="m 217.93674,438.34936 v 98.24949 l 34.8083,-12.95994 v -73.66785 z"
           points="217.93674,536.59885 252.74504,523.63891 252.74504,449.97106 217.93674,438.34936 " />
        <path
           sodipodi:type="inkscape:box3dside"
           id="path126"
           style="fill:#000000;fill-opacity:1;fill-rule:nonzero;stroke:#ffffff;stroke-linejoin:round;stroke-opacity:1"
           inkscape:box3dsidetype="13"
           d="m 217.93674,536.59885 17.05736,3.16547 31.91893,-14.37256 -14.16799,-1.75285 z"
           points="234.9941,539.76432 266.91303,525.39176 252.74504,523.63891 217.93674,536.59885 " />
        <path
           sodipodi:type="inkscape:box3dside"
           id="path123"
           style="fill:#000000;fill-opacity:1;fill-rule:nonzero;stroke:#ffffff;stroke-linejoin:round;stroke-opacity:1"
           inkscape:box3dsidetype="5"
           d="m 217.93674,438.34936 17.05736,-2.83861 31.91893,12.88846 -14.16799,1.57185 z"
           points="234.9941,435.51075 266.91303,448.39921 252.74504,449.97106 217.93674,438.34936 " />
        <path
           sodipodi:type="inkscape:box3dside"
           id="path125"
           style="fill:#000000;fill-opacity:1;fill-rule:nonzero;stroke:#ffffff;stroke-linejoin:round;stroke-opacity:1"
           inkscape:box3dsidetype="14"
           d="m 234.9941,435.51075 v 104.25357 l 31.91893,-14.37256 v -76.99255 z"
           points="234.9941,539.76432 266.91303,525.39176 266.91303,448.39921 234.9941,435.51075 " />
        <path
           sodipodi:type="inkscape:box3dside"
           id="path124"
           style="fill:#000000;fill-opacity:1;fill-rule:nonzero;stroke:#ffffff;stroke-linejoin:round;stroke-opacity:1"
           inkscape:box3dsidetype="3"
           d="m 217.93674,438.34936 17.05736,-2.83861 v 104.25357 l -17.05736,-3.16547 z"
           points="234.9941,435.51075 234.9941,539.76432 217.93674,536.59885 217.93674,438.34936 " />
      </g>
    </g>
    <g
       inkscape:groupmode="layer"
       id="layer5"
       inkscape:label="napis"
       style="display:inline"
       transform="translate(13.547545,31.73996)">
      <text
         xml:space="preserve"
         id="text40"
         style="font-style:normal;font-variant:normal;font-weight:bold;font-stretch:normal;font-size:133.333px;font-family:'Century Schoolbook';-inkscape-font-specification:'Century Schoolbook, Bold';font-variant-ligatures:normal;font-variant-caps:normal;font-variant-numeric:normal;font-variant-east-asian:normal;white-space:pre;shape-inside:url(#rect40);display:inline;fill:#600000;fill-opacity:1;stroke:none;stroke-opacity:1"
         transform="matrix(0.42710881,0,0,0.47179746,-95.8411,-263.69437)"><tspan
           x="371.58984"
           y="1093.5788"
           id="tspan3">        FIX</tspan></text>
      <text
         xml:space="preserve"
         id="text39"
         style="font-style:normal;font-variant:normal;font-weight:bold;font-stretch:normal;font-size:133.333px;font-family:'Century Schoolbook';-inkscape-font-specification:'Century Schoolbook, Bold';font-variant-ligatures:normal;font-variant-caps:normal;font-variant-numeric:normal;font-variant-east-asian:normal;white-space:pre;shape-inside:url(#rect39);display:inline;fill:#000000;fill-opacity:1;stroke:none;stroke-opacity:1"
         transform="matrix(0.43367799,0,0,0.47179746,-101.95933,-263.69437)"><tspan
           x="371.58984"
           y="1093.5788"
           id="tspan4">PRE</tspan></text>
    </g>
  </g>
</svg>
